<svg xmlns="http://www.w3.org/2000/svg" width="123.102" height="18.291" viewBox="0 0 123.102 18.291">
  <g id="Thetis_IMS_logo-white_RGB" data-name="Thetis IMS logo-white_RGB" transform="translate(-71.535 -19.089)">
    <path id="Path_46" data-name="Path 46" d="M298.333,253.227h-3.9v12.838a2.365,2.365,0,0,1-.5,1.647,1.658,1.658,0,0,1-1.277.535,1.68,1.68,0,0,1-1.3-.543,2.345,2.345,0,0,1-.5-1.639V253.227h-3.907a1.987,1.987,0,0,1-1.362-.4,1.374,1.374,0,0,1-.445-1.066,1.35,1.35,0,0,1,.474-1.085,2.012,2.012,0,0,1,1.343-.4h11.372a1.993,1.993,0,0,1,1.381.41,1.379,1.379,0,0,1,.452,1.073,1.355,1.355,0,0,1-.46,1.066A2.04,2.04,0,0,1,298.333,253.227Z" transform="translate(-213.61 -230.88)" fill="#2B5379"/>
    <path id="Path_47" data-name="Path 47" d="M358.143,251.005v4.883a6.987,6.987,0,0,1,1.222-1.147,4.5,4.5,0,0,1,1.32-.633,5.579,5.579,0,0,1,1.556-.211,4.575,4.575,0,0,1,2.225.531,4.127,4.127,0,0,1,1.995,2.864,10.354,10.354,0,0,1,.121,1.68v6.3a2.169,2.169,0,0,1-.452,1.495,1.531,1.531,0,0,1-1.2.507q-1.625,0-1.625-2v-5.556a5.053,5.053,0,0,0-.474-2.428,1.849,1.849,0,0,0-1.784-.851,2.666,2.666,0,0,0-1.585.5,3.006,3.006,0,0,0-1.054,1.369,8.682,8.682,0,0,0-.265,2.606v4.359a2.223,2.223,0,0,1-.441,1.49,1.528,1.528,0,0,1-1.222.512q-1.628,0-1.628-2V251.005a2.261,2.261,0,0,1,.426-1.5,1.5,1.5,0,0,1,1.2-.5,1.54,1.54,0,0,1,1.222.507A2.218,2.218,0,0,1,358.143,251.005Z" transform="translate(-266.801 -229.912)" fill="#2B5379"/>
    <path id="Path_48" data-name="Path 48" d="M425.285,277.152h-6.437a4.385,4.385,0,0,0,.452,1.978,3.12,3.12,0,0,0,1.17,1.289,3.08,3.08,0,0,0,1.609.434,3.934,3.934,0,0,0,1.078-.137,3.447,3.447,0,0,0,.948-.436,7.249,7.249,0,0,0,.843-.633c.258-.237.59-.531,1-.914a1.085,1.085,0,0,1,.725-.218,1.2,1.2,0,0,1,.82.277.993.993,0,0,1,.313.784,2.132,2.132,0,0,1-.358,1.054,4.086,4.086,0,0,1-1.054,1.144,5.923,5.923,0,0,1-1.772.91,7.607,7.607,0,0,1-2.452.362,6.564,6.564,0,0,1-4.93-1.808,6.732,6.732,0,0,1-1.76-4.906,8.189,8.189,0,0,1,.434-2.706,5.963,5.963,0,0,1,1.265-2.132,5.5,5.5,0,0,1,2.049-1.369,7.364,7.364,0,0,1,2.7-.474,6.4,6.4,0,0,1,3.317.815,5.344,5.344,0,0,1,2.066,2.1A5.517,5.517,0,0,1,428,275.2q0,1.241-.711,1.609A4.45,4.45,0,0,1,425.285,277.152Zm-6.437-1.869h5.968a4.013,4.013,0,0,0-.91-2.525,2.732,2.732,0,0,0-2.08-.836,2.625,2.625,0,0,0-2.019.85A4.238,4.238,0,0,0,418.848,275.282Z" transform="translate(-313.066 -245.667)" fill="#2B5379"/>
    <path id="Path_49" data-name="Path 49" d="M475.867,255.559h.362v-1.976c0-.531.012-.948.04-1.249a1.83,1.83,0,0,1,.237-.777,1.464,1.464,0,0,1,.554-.547,1.552,1.552,0,0,1,.808-.211,1.63,1.63,0,0,1,1.132.474,1.383,1.383,0,0,1,.426.765,6.808,6.808,0,0,1,.092,1.284v2.241h1.2a1.552,1.552,0,0,1,1.068.332,1.1,1.1,0,0,1,.367.851.948.948,0,0,1-.524.929,3.431,3.431,0,0,1-1.5.265h-.614v6.051a10.036,10.036,0,0,0,.052,1.185,1.211,1.211,0,0,0,.291.675.986.986,0,0,0,.765.258,4.046,4.046,0,0,0,.782-.1,4.024,4.024,0,0,1,.772-.1.992.992,0,0,1,.711.32,1.07,1.07,0,0,1,.32.789,1.321,1.321,0,0,1-.869,1.218,5.873,5.873,0,0,1-2.495.422,4.308,4.308,0,0,1-2.338-.519,2.4,2.4,0,0,1-1.042-1.421,9.69,9.69,0,0,1-.237-2.447v-6.33H475.8a1.571,1.571,0,0,1-1.085-.339,1.1,1.1,0,0,1-.372-.855,1.068,1.068,0,0,1,.391-.85,1.724,1.724,0,0,1,1.137-.332Z" transform="translate(-357.981 -231.284)" fill="#2B5379"/>
    <path id="Path_50" data-name="Path 50" d="M518.524,252.847a1.729,1.729,0,0,1-1.185-.422,1.632,1.632,0,0,1,0-2.345,1.677,1.677,0,0,1,1.163-.45,1.717,1.717,0,0,1,1.132.41,1.459,1.459,0,0,1,.5,1.185,1.5,1.5,0,0,1-.474,1.185A1.658,1.658,0,0,1,518.524,252.847Zm1.628,3.4v9.51a2.112,2.112,0,0,1-.474,1.495,1.552,1.552,0,0,1-1.185.507,1.486,1.486,0,0,1-1.185-.519,2.189,2.189,0,0,1-.452-1.483v-9.405a2.114,2.114,0,0,1,.452-1.471,1.521,1.521,0,0,1,1.185-.5,1.575,1.575,0,0,1,1.185.5A1.914,1.914,0,0,1,520.152,256.247Z" transform="translate(-390.416 -230.391)" fill="#2B5379"/>
    <path id="Path_51" data-name="Path 51" d="M553.534,278.743a3.819,3.819,0,0,1-2.623,3.791,8.764,8.764,0,0,1-3.151.5,7.685,7.685,0,0,1-3.04-.542,4.415,4.415,0,0,1-1.867-1.355,2.731,2.731,0,0,1-.6-1.635,1.277,1.277,0,0,1,.386-.929,1.329,1.329,0,0,1,.976-.374,1.132,1.132,0,0,1,.8.253,2.747,2.747,0,0,1,.531.711,3.608,3.608,0,0,0,1.211,1.313,3.663,3.663,0,0,0,1.924.434,2.772,2.772,0,0,0,1.621-.438,1.239,1.239,0,0,0,.633-1.007,1.369,1.369,0,0,0-.656-1.265,8.136,8.136,0,0,0-2.163-.76,17.831,17.831,0,0,1-2.767-.886,4.567,4.567,0,0,1-1.706-1.223,2.806,2.806,0,0,1-.64-1.869,3.317,3.317,0,0,1,.592-1.869,4.044,4.044,0,0,1,1.741-1.4,6.654,6.654,0,0,1,2.779-.526,9.205,9.205,0,0,1,2.3.265,5.749,5.749,0,0,1,1.7.711,3.511,3.511,0,0,1,1.038.99,1.932,1.932,0,0,1,.355,1.059,1.223,1.223,0,0,1-.379.929,1.5,1.5,0,0,1-1.08.363,1.324,1.324,0,0,1-.86-.289,5.769,5.769,0,0,1-.8-.869,2.983,2.983,0,0,0-.879-.77,2.763,2.763,0,0,0-1.374-.289,2.689,2.689,0,0,0-1.483.379,1.109,1.109,0,0,0-.59.948,1.024,1.024,0,0,0,.434.851,3.651,3.651,0,0,0,1.168.55q.734.218,2.026.528a10.9,10.9,0,0,1,2.49.884,4.179,4.179,0,0,1,1.471,1.222,2.729,2.729,0,0,1,.5,1.62Z" transform="translate(-409.803 -245.676)" fill="#2B5379"/>
    <path id="Path_52" data-name="Path 52" d="M629.26,265.1V251.176a2.344,2.344,0,0,1,.5-1.628,1.659,1.659,0,0,1,1.277-.543,1.708,1.708,0,0,1,1.308.538,2.307,2.307,0,0,1,.5,1.632V265.1a2.345,2.345,0,0,1-.5,1.639,1.694,1.694,0,0,1-1.308.543,1.659,1.659,0,0,1-1.272-.547A2.357,2.357,0,0,1,629.26,265.1Z" transform="translate(-476.2 -229.915)" fill="#2B5379"/>
    <path id="Path_53" data-name="Path 53" d="M666.694,265.271l-2.843-11.258v12.2a2.228,2.228,0,0,1-.45,1.519,1.659,1.659,0,0,1-2.381,0,2.2,2.2,0,0,1-.46-1.526V252.227a1.751,1.751,0,0,1,.6-1.561,2.893,2.893,0,0,1,1.628-.4H663.9a4.226,4.226,0,0,1,1.452.18,1.215,1.215,0,0,1,.668.652,10.018,10.018,0,0,1,.5,1.53l2.568,9.68,2.566-9.68a9.991,9.991,0,0,1,.5-1.53,1.215,1.215,0,0,1,.668-.652,4.243,4.243,0,0,1,1.455-.18h1.109a2.9,2.9,0,0,1,1.635.408,1.756,1.756,0,0,1,.6,1.561v13.978a2.219,2.219,0,0,1-.453,1.519,1.54,1.54,0,0,1-1.211.507,1.507,1.507,0,0,1-1.17-.507,2.183,2.183,0,0,1-.457-1.519v-12.2l-2.843,11.258c-.185.732-.334,1.27-.453,1.611a2.227,2.227,0,0,1-.644.933,1.872,1.872,0,0,1-1.3.422,1.9,1.9,0,0,1-1.737-.964,3.954,3.954,0,0,1-.379-.933C666.885,266,666.791,265.64,666.694,265.271Z" transform="translate(-500.085 -230.87)" fill="#2B5379"/>
    <path id="Path_54" data-name="Path 54" d="M759.514,261.672a5.18,5.18,0,0,1-.827,2.881,5.48,5.48,0,0,1-2.417,2,9.065,9.065,0,0,1-3.772.711,8.533,8.533,0,0,1-4.317-.988,5.739,5.739,0,0,1-1.959-1.9,4.3,4.3,0,0,1-.753-2.307,1.561,1.561,0,0,1,1.6-1.578,1.365,1.365,0,0,1,.948.36,2.86,2.86,0,0,1,.668,1.073,7.193,7.193,0,0,0,.73,1.41,2.951,2.951,0,0,0,1.1.936,4.091,4.091,0,0,0,1.869.367,4.208,4.208,0,0,0,2.585-.742,2.232,2.232,0,0,0,.995-1.85,1.952,1.952,0,0,0-.535-1.421,3.487,3.487,0,0,0-1.386-.839q-.853-.287-2.272-.614a16.726,16.726,0,0,1-3.189-1.042,5.143,5.143,0,0,1-2.037-1.628,4.227,4.227,0,0,1-.753-2.561,4.394,4.394,0,0,1,.8-2.592,5.011,5.011,0,0,1,2.3-1.744,9.446,9.446,0,0,1,3.554-.609,8.738,8.738,0,0,1,2.815.405,5.944,5.944,0,0,1,1.971,1.073,4.47,4.47,0,0,1,1.147,1.4,3.246,3.246,0,0,1,.36,1.433,1.7,1.7,0,0,1-.45,1.151,1.445,1.445,0,0,1-1.128.512,1.3,1.3,0,0,1-.948-.308,4.186,4.186,0,0,1-.692-1,4.549,4.549,0,0,0-1.158-1.561,3.4,3.4,0,0,0-2.168-.561,3.765,3.765,0,0,0-2.237.609,1.766,1.766,0,0,0-.85,1.464,1.5,1.5,0,0,0,.289.917,2.455,2.455,0,0,0,.8.663,5.368,5.368,0,0,0,1.023.434c.346.1.917.258,1.713.457a27.02,27.02,0,0,1,2.706.772,8.291,8.291,0,0,1,2.061,1.023,4.241,4.241,0,0,1,1.327,1.526A4.89,4.89,0,0,1,759.514,261.672Z" transform="translate(-564.878 -229.911)" fill="#2B5379"/>
  </g>
</svg>
